<svg xmlns="http://www.w3.org/2000/svg" width="48" height="48" viewBox="0 0 24 24" fill="none" stroke="#D96B5E" stroke-width="1.5" stroke-linecap="round" stroke-linejoin="round">
  <path d="M11 21.73a2 2 0 0 0 2 0l7-4A2 2 0 0 0 21 16V8a2 2 0 0 0-1-1.73l-7-4a2 2 0 0 0-2 0l-7 4A2 2 0 0 0 3 8v8a2 2 0 0 0 1 1.73z"/>
  <polyline points="3.27 6.96 12 12.01 20.73 6.96"/>
  <line x1="12" y1="22.08" x2="12" y2="12"/>
  <circle cx="18.5" cy="18.5" r="2.5"/>
  <line x1="20.27" y1="20.27" x2="22" y2="22"/>
</svg>
